JosefinSlabFix-ThinItalic_ik.ufo
<glyph name="parenleft" format="1">
  <advance width="252"/>
  <unicode hex="0028"/>
  <outline>
    <contour>
      <point x="51" y="218" type="qcurve"/>
      <point x="51" y="306"/>
      <point x="91" y="465"/>
      <point x="156" y="600"/>
      <point x="237" y="709"/>
      <point x="278" y="747" type="qcurve"/>
      <point x="278" y="724" type="line"/>
      <point x="240" y="686"/>
      <point x="164" y="583"/>
      <point x="104" y="455"/>
      <point x="66" y="306"/>
      <point x="66" y="222" type="qcurve"/>
      <point x="66" y="164"/>
      <point x="83" y="57"/>
      <point x="113" y="-36"/>
      <point x="151" y="-112"/>
      <point x="172" y="-140" type="qcurve"/>
      <point x="166" y="-163" type="line"/>
      <point x="143" y="-135"/>
      <point x="101" y="-55"/>
      <point x="69" y="43"/>
      <point x="51" y="156"/>
    </contour>
  </outline>
</glyph>
<glyph name="nine" format="1">
  <advance width="529"/>
  <unicode hex="0039"/>
  <outline>
    <contour>
      <point x="487" y="432" type="qcurve"/>
      <point x="478" y="359"/>
      <point x="401" y="234"/>
      <point x="291" y="126"/>
      <point x="161" y="33"/>
      <point x="100" y="-8" type="qcurve"/>
      <point x="92" y="5" type="line"/>
      <point x="164" y="49"/>
      <point x="277" y="135"/>
      <point x="361" y="214"/>
      <point x="416" y="283"/>
      <point x="431" y="311" type="qcurve"/>
      <point x="399" y="274"/>
      <point x="309" y="230"/>
      <point x="258" y="230" type="qcurve"/>
      <point x="219" y="230"/>
      <point x="152" y="258"/>
      <point x="104" y="308"/>
      <point x="77" y="374"/>
      <point x="77" y="412" type="qcurve"/>
      <point x="77" y="457"/>
      <point x="115" y="537"/>
      <point x="178" y="598"/>
      <point x="262" y="633"/>
      <point x="307" y="633" type="qcurve"/>
      <point x="349" y="633"/>
      <point x="420" y="601"/>
      <point x="469" y="547"/>
      <point x="492" y="474"/>
    </contour>
    <contour>
      <point x="474" y="432" type="qcurve"/>
      <point x="478" y="471"/>
      <point x="457" y="539"/>
      <point x="411" y="590"/>
      <point x="345" y="619"/>
      <point x="306" y="619" type="qcurve"/>
      <point x="264" y="619"/>
      <point x="186" y="586"/>
      <point x="127" y="530"/>
      <point x="91" y="455"/>
      <point x="91" y="413" type="qcurve"/>
      <point x="91" y="378"/>
      <point x="117" y="316"/>
      <point x="162" y="270"/>
      <point x="224" y="244"/>
      <point x="260" y="244" type="qcurve"/>
      <point x="299" y="244"/>
      <point x="372" y="273"/>
      <point x="431" y="324"/>
      <point x="469" y="393"/>
    </contour>
  </outline>
</glyph>
<glyph name="bracketright" format="1">
  <advance width="295"/>
  <unicode hex="005D"/>
  <outline>
    <contour>
      <point x="250" y="746" type="line"/>
      <point x="140" y="-149" type="line"/>
      <point x="-23" y="-149" type="line"/>
      <point x="-21" y="-135" type="line"/>
      <point x="126" y="-135" type="line"/>
      <point x="232" y="732" type="line"/>
      <point x="85" y="732" type="line"/>
      <point x="87" y="746" type="line"/>
    </contour>
  </outline>
</glyph>
<glyph name="asciitilde" format="1">
  <advance width="467"/>
  <unicode hex="007E"/>
  <outline>
    <contour>
      <point x="253" y="497" type="qcurve"/>
      <point x="239" y="515"/>
      <point x="217" y="527"/>
      <point x="203" y="527" type="qcurve"/>
      <point x="195" y="527"/>
      <point x="173" y="522"/>
      <point x="152" y="510"/>
      <point x="134" y="489"/>
      <point x="130" y="472" type="qcurve"/>
      <point x="117" y="474" type="line"/>
      <point x="124" y="511"/>
      <point x="179" y="541"/>
      <point x="207" y="541" type="qcurve"/>
      <point x="227" y="541"/>
      <point x="257" y="520"/>
      <point x="271" y="503" type="qcurve"/>
      <point x="285" y="485"/>
      <point x="308" y="473"/>
      <point x="322" y="473" type="qcurve"/>
      <point x="330" y="473"/>
      <point x="352" y="478"/>
      <point x="373" y="490"/>
      <point x="391" y="511"/>
      <point x="395" y="528" type="qcurve"/>
      <point x="407" y="526" type="line"/>
      <point x="400" y="489"/>
      <point x="345" y="459"/>
      <point x="317" y="459" type="qcurve"/>
      <point x="297" y="459"/>
      <point x="267" y="480"/>
    </contour>
  </outline>
</glyph>
<glyph name="section" format="1">
  <advance width="357"/>
  <unicode hex="00A7"/>
  <outline>
    <contour>
      <point x="156" y="154" type="qcurve"/>
      <point x="87" y="304" type="line"/>
      <point x="78" y="324"/>
      <point x="77" y="369"/>
      <point x="93" y="411"/>
      <point x="124" y="447"/>
      <point x="145" y="459" type="qcurve"/>
      <point x="174" y="474"/>
      <point x="234" y="471"/>
      <point x="258" y="456" type="qcurve"/>
      <point x="244" y="483"/>
      <point x="221" y="538"/>
      <point x="209" y="566" type="qcurve"/>
      <point x="187" y="615"/>
      <point x="187" y="665"/>
      <point x="199" y="681" type="qcurve"/>
      <point x="211" y="697"/>
      <point x="259" y="721"/>
      <point x="277" y="730" type="qcurve"/>
      <point x="278" y="727"/>
      <point x="281" y="721"/>
      <point x="282" y="718" type="qcurve"/>
      <point x="229" y="689" type="line"/>
      <point x="201" y="674"/>
      <point x="201" y="618"/>
      <point x="225" y="566" type="qcurve"/>
      <point x="293" y="415" type="line"/>
      <point x="302" y="395"/>
      <point x="302" y="351"/>
      <point x="286" y="309"/>
      <point x="255" y="274"/>
      <point x="234" y="262" type="qcurve"/>
      <point x="205" y="246"/>
      <point x="145" y="248"/>
      <point x="121" y="264" type="qcurve"/>
      <point x="134" y="236"/>
      <point x="160" y="182"/>
      <point x="172" y="154" type="qcurve"/>
      <point x="194" y="105"/>
      <point x="193" y="55"/>
      <point x="182" y="39" type="qcurve"/>
      <point x="176" y="31"/>
      <point x="157" y="16"/>
      <point x="135" y="4"/>
      <point x="113" y="-6"/>
      <point x="104" y="-10" type="qcurve"/>
      <point x="98" y="2" type="line"/>
      <point x="152" y="31" type="line"/>
      <point x="180" y="46"/>
      <point x="180" y="102"/>
    </contour>
    <contour>
      <point x="100" y="311" type="qcurve"/>
      <point x="112" y="284"/>
      <point x="162" y="260"/>
      <point x="191" y="262" type="qcurve"/>
      <point x="212" y="264"/>
      <point x="248" y="285"/>
      <point x="275" y="315"/>
      <point x="289" y="353"/>
      <point x="289" y="371" type="qcurve"/>
      <point x="289" y="393"/>
      <point x="271" y="427"/>
      <point x="243" y="450"/>
      <point x="207" y="460"/>
      <point x="189" y="459" type="qcurve"/>
      <point x="160" y="456"/>
      <point x="118" y="425"/>
      <point x="94" y="382"/>
      <point x="90" y="332"/>
    </contour>
  </outline>
</glyph>
<glyph name="copyright" format="1">
  <advance width="663"/>
  <unicode hex="00A9"/>
  <outline>
    <contour>
      <point x="313" y="118" type="qcurve"/>
      <point x="263" y="118"/>
      <point x="180" y="152"/>
      <point x="120" y="212"/>
      <point x="87" y="295"/>
      <point x="87" y="344" type="qcurve"/>
      <point x="87" y="404"/>
      <point x="133" y="508"/>
      <point x="212" y="584"/>
      <point x="317" y="627"/>
      <point x="375" y="627" type="qcurve"/>
      <point x="425" y="627"/>
      <point x="508" y="593"/>
      <point x="568" y="533"/>
      <point x="601" y="449"/>
      <point x="601" y="400" type="qcurve"/>
      <point x="601" y="340"/>
      <point x="555" y="237"/>
      <point x="476" y="161"/>
      <point x="371" y="118"/>
    </contour>
    <contour>
      <point x="314" y="132" type="qcurve"/>
      <point x="368" y="132"/>
      <point x="466" y="173"/>
      <point x="542" y="244"/>
      <point x="587" y="341"/>
      <point x="587" y="397" type="qcurve"/>
      <point x="587" y="444"/>
      <point x="555" y="524"/>
      <point x="498" y="581"/>
      <point x="419" y="613"/>
      <point x="373" y="613" type="qcurve"/>
      <point x="320" y="613"/>
      <point x="222" y="572"/>
      <point x="146" y="501"/>
      <point x="101" y="403"/>
      <point x="101" y="346" type="qcurve"/>
      <point x="101" y="300"/>
      <point x="134" y="222"/>
      <point x="191" y="165"/>
      <point x="269" y="132"/>
    </contour>
    <contour>
      <point x="442" y="480" type="line"/>
      <point x="445" y="510" type="line"/>
      <point x="413" y="531"/>
      <point x="372" y="531" type="qcurve"/>
      <point x="337" y="531"/>
      <point x="274" y="504"/>
      <point x="225" y="456"/>
      <point x="196" y="392"/>
      <point x="196" y="356" type="qcurve"/>
      <point x="196" y="328"/>
      <point x="214" y="279"/>
      <point x="249" y="242"/>
      <point x="298" y="220"/>
      <point x="330" y="220" type="qcurve"/>
      <point x="353" y="220"/>
      <point x="395" y="231"/>
      <point x="414" y="241" type="qcurve"/>
      <point x="418" y="236" type="line"/>
      <point x="398" y="225"/>
      <point x="356" y="213"/>
      <point x="331" y="213" type="qcurve"/>
      <point x="298" y="213"/>
      <point x="246" y="236"/>
      <point x="209" y="275"/>
      <point x="190" y="327"/>
      <point x="190" y="356" type="qcurve"/>
      <point x="190" y="393"/>
      <point x="220" y="459"/>
      <point x="270" y="509"/>
      <point x="336" y="537"/>
      <point x="372" y="537" type="qcurve"/>
      <point x="417" y="537"/>
      <point x="452" y="515" type="qcurve"/>
      <point x="448" y="480" type="line"/>
    </contour>
  </outline>
</glyph>
<glyph name="guillemotleft" format="1">
  <advance width="458"/>
  <unicode hex="00AB"/>
  <outline>
    <contour>
      <point x="369" y="77" type="line"/>
      <point x="218" y="239" type="line"/>
      <point x="409" y="400" type="line"/>
      <point x="407" y="383" type="line"/>
      <point x="247" y="239" type="line"/>
      <point x="371" y="93" type="line"/>
    </contour>
    <contour>
      <point x="198" y="77" type="line"/>
      <point x="47" y="239" type="line"/>
      <point x="238" y="400" type="line"/>
      <point x="236" y="383" type="line"/>
      <point x="76" y="239" type="line"/>
      <point x="200" y="93" type="line"/>
    </contour>
  </outline>
</glyph>
<glyph name="twosuperior" format="1">
  <advance width="343"/>
  <unicode hex="00B2"/>
  <outline>
    <contour>
      <point x="109" y="382" type="qcurve"/>
      <point x="281" y="382" type="line"/>
      <point x="288" y="448" type="line"/>
      <point x="295" y="448" type="line"/>
      <point x="287" y="382" type="line"/>
      <point x="286" y="375" type="line"/>
      <point x="90" y="375" type="line"/>
      <point x="127" y="407"/>
      <point x="198" y="469"/>
      <point x="252" y="529"/>
      <point x="285" y="587"/>
      <point x="285" y="614" type="qcurve"/>
      <point x="285" y="637"/>
      <point x="272" y="667"/>
      <point x="252" y="685"/>
      <point x="227" y="693"/>
      <point x="216" y="693" type="qcurve"/>
      <point x="188" y="693"/>
      <point x="152" y="672"/>
      <point x="131" y="642"/>
      <point x="123" y="609"/>
      <point x="123" y="596" type="qcurve"/>
      <point x="123" y="569"/>
      <point x="137" y="550" type="qcurve"/>
      <point x="132" y="546" type="line"/>
      <point x="117" y="565"/>
      <point x="117" y="596" type="qcurve"/>
      <point x="117" y="639"/>
      <point x="169" y="700"/>
      <point x="217" y="700" type="qcurve"/>
      <point x="252" y="700"/>
      <point x="293" y="653"/>
      <point x="293" y="617" type="qcurve"/>
      <point x="293" y="586"/>
      <point x="259" y="526"/>
      <point x="205" y="467"/>
      <point x="140" y="410"/>
    </contour>
  </outline>
</glyph>
<glyph name="Oslash" format="1">
  <advance width="836"/>
  <unicode hex="00D8"/>
  <outline>
    <contour>
      <point x="69" y="349" type="qcurve"/>
      <point x="78" y="423"/>
      <point x="150" y="554"/>
      <point x="259" y="651"/>
      <point x="396" y="708"/>
      <point x="470" y="708" type="qcurve"/>
      <point x="529" y="708"/>
      <point x="631" y="670"/>
      <point x="672" y="637" type="qcurve"/>
      <point x="748" y="716" type="line"/>
      <point x="755" y="708" type="line"/>
      <point x="680" y="630" type="line"/>
      <point x="731" y="585"/>
      <point x="788" y="459"/>
      <point x="788" y="385" type="qcurve"/>
      <point x="788" y="305"/>
      <point x="721" y="162"/>
      <point x="609" y="55"/>
      <point x="462" y="-8"/>
      <point x="382" y="-8" type="qcurve"/>
      <point x="313" y="-8"/>
      <point x="197" y="40"/>
      <point x="155" y="83" type="qcurve"/>
      <point x="76" y="0" type="line"/>
      <point x="69" y="8" type="line"/>
      <point x="86" y="25"/>
      <point x="125" y="67"/>
      <point x="148" y="90" type="qcurve"/>
      <point x="103" y="139"/>
      <point x="59" y="272"/>
    </contour>
    <contour>
      <point x="165" y="93" type="line"/>
      <point x="206" y="52"/>
      <point x="315" y="6"/>
      <point x="381" y="6" type="qcurve"/>
      <point x="457" y="6"/>
      <point x="599" y="66"/>
      <point x="708" y="169"/>
      <point x="773" y="306"/>
      <point x="773" y="383" type="qcurve"/>
      <point x="773" y="454"/>
      <point x="717" y="575"/>
      <point x="669" y="618" type="qcurve"/>
    </contour>
    <contour>
      <point x="83" y="348" type="qcurve"/>
      <point x="74" y="275"/>
      <point x="115" y="148"/>
      <point x="158" y="101" type="qcurve"/>
      <point x="661" y="625" type="line"/>
      <point x="622" y="657"/>
      <point x="525" y="694"/>
      <point x="468" y="694" type="qcurve"/>
      <point x="397" y="694"/>
      <point x="266" y="639"/>
      <point x="161" y="545"/>
      <point x="92" y="419"/>
    </contour>
  </outline>
</glyph>
<glyph name="Udieresis" format="1">
  <advance width="697"/>
  <unicode hex="00DC"/>
  <outline>
    <contour>
      <point x="275" y="700" type="line"/>
      <point x="273" y="686" type="line"/>
      <point x="190" y="686" type="line"/>
      <point x="134" y="229" type="line"/>
      <point x="127" y="175"/>
      <point x="148" y="92"/>
      <point x="198" y="35"/>
      <point x="272" y="6"/>
      <point x="318" y="6" type="qcurve"/>
      <point x="363" y="6"/>
      <point x="444" y="35"/>
      <point x="507" y="92"/>
      <point x="549" y="175"/>
      <point x="556" y="229" type="qcurve"/>
      <point x="612" y="686" type="line"/>
      <point x="614" y="700" type="line"/>
      <point x="707" y="700" type="line"/>
      <point x="705" y="686" type="line"/>
      <point x="626" y="686" type="line"/>
      <point x="570" y="226" type="line"/>
      <point x="563" y="169"/>
      <point x="517" y="81"/>
      <point x="450" y="22"/>
      <point x="364" y="-8"/>
      <point x="316" y="-8" type="qcurve"/>
      <point x="268" y="-8"/>
      <point x="189" y="22"/>
      <point x="136" y="81"/>
      <point x="113" y="169"/>
      <point x="120" y="226" type="qcurve"/>
      <point x="176" y="686" type="line"/>
      <point x="99" y="686" type="line"/>
      <point x="101" y="700" type="line"/>
    </contour>
    <contour>
      <point x="314" y="753" type="qcurve"/>
      <point x="314" y="762"/>
      <point x="328" y="775"/>
      <point x="337" y="775" type="qcurve"/>
      <point x="345" y="775"/>
      <point x="355" y="765"/>
      <point x="355" y="757" type="qcurve"/>
      <point x="355" y="748"/>
      <point x="341" y="735"/>
      <point x="332" y="735" type="qcurve"/>
      <point x="324" y="735"/>
      <point x="314" y="745"/>
    </contour>
    <contour>
      <point x="479" y="753" type="qcurve"/>
      <point x="479" y="762"/>
      <point x="493" y="775"/>
      <point x="502" y="775" type="qcurve"/>
      <point x="510" y="775"/>
      <point x="520" y="765"/>
      <point x="520" y="757" type="qcurve"/>
      <point x="520" y="748"/>
      <point x="506" y="735"/>
      <point x="497" y="735" type="qcurve"/>
      <point x="489" y="735"/>
      <point x="479" y="745"/>
    </contour>
  </outline>
</glyph>
<glyph name="Thorn" format="1">
  <advance width="521"/>
  <unicode hex="00DE"/>
  <outline>
    <contour>
      <point x="123" y="14" type="line"/>
      <point x="121" y="0" type="line"/>
      <point x="31" y="0" type="line"/>
      <point x="33" y="14" type="line"/>
      <point x="108" y="14" type="line"/>
      <point x="191" y="686" type="line"/>
      <point x="115" y="686" type="line"/>
      <point x="117" y="700" type="line"/>
      <point x="207" y="700" type="line"/>
      <point x="187" y="535" type="line"/>
      <point x="313" y="535" type="line"/>
      <point x="340" y="535"/>
      <point x="403" y="518"/>
      <point x="456" y="480"/>
      <point x="492" y="417"/>
      <point x="492" y="372" type="qcurve"/>
      <point x="492" y="332"/>
      <point x="463" y="255"/>
      <point x="403" y="194"/>
      <point x="313" y="156"/>
      <point x="252" y="156" type="qcurve"/>
      <point x="140" y="156" type="line"/>
      <point x="122" y="14" type="line"/>
    </contour>
    <contour>
      <point x="142" y="170" type="line"/>
      <point x="257" y="170" type="line"/>
      <point x="321" y="170"/>
      <point x="406" y="213"/>
      <point x="457" y="274"/>
      <point x="478" y="344"/>
      <point x="478" y="371" type="qcurve"/>
      <point x="478" y="405"/>
      <point x="452" y="461"/>
      <point x="405" y="500"/>
      <point x="340" y="521"/>
      <point x="301" y="521" type="qcurve"/>
      <point x="185" y="521" type="line"/>
    </contour>
  </outline>
</glyph>
<glyph name="ntilde" format="1">
  <advance width="485"/>
  <unicode hex="00F1"/>
  <outline>
    <contour>
      <point x="367" y="42" type="line"/>
      <point x="364" y="14" type="line"/>
      <point x="444" y="14" type="line"/>
      <point x="442" y="0" type="line"/>
      <point x="269" y="0" type="line"/>
      <point x="271" y="14" type="line"/>
      <point x="349" y="14" type="line"/>
      <point x="353" y="42" type="line"/>
      <point x="382" y="277" type="line"/>
      <point x="385" y="313"/>
      <point x="342" y="366"/>
      <point x="298" y="368" type="qcurve"/>
      <point x="264" y="368"/>
      <point x="200" y="346"/>
      <point x="149" y="307"/>
      <point x="115" y="252"/>
      <point x="111" y="220" type="qcurve"/>
      <point x="88" y="37" type="line"/>
      <point x="89" y="37" type="line"/>
      <point x="86" y="14" type="line"/>
      <point x="167" y="14" type="line"/>
      <point x="165" y="0" type="line"/>
      <point x="-10" y="0" type="line"/>
      <point x="-8" y="14" type="line"/>
      <point x="71" y="14" type="line"/>
      <point x="114" y="361" type="line"/>
      <point x="34" y="361" type="line"/>
      <point x="36" y="375" type="line"/>
      <point x="125" y="375" type="line"/>
      <point x="115" y="277" type="line"/>
      <point x="141" y="324"/>
      <point x="236" y="382"/>
      <point x="293" y="382" type="qcurve"/>
      <point x="346" y="382"/>
      <point x="400" y="320"/>
      <point x="395" y="270" type="qcurve"/>
    </contour>
    <contour>
      <point x="270" y="485" type="qcurve"/>
      <point x="256" y="503"/>
      <point x="234" y="515"/>
      <point x="220" y="515" type="qcurve"/>
      <point x="212" y="515"/>
      <point x="190" y="510"/>
      <point x="169" y="498"/>
      <point x="151" y="477"/>
      <point x="147" y="460" type="qcurve"/>
      <point x="134" y="462" type="line"/>
      <point x="141" y="499"/>
      <point x="196" y="529"/>
      <point x="224" y="529" type="qcurve"/>
      <point x="244" y="529"/>
      <point x="274" y="508"/>
      <point x="288" y="491" type="qcurve"/>
      <point x="302" y="473"/>
      <point x="325" y="461"/>
      <point x="339" y="461" type="qcurve"/>
      <point x="347" y="461"/>
      <point x="369" y="466"/>
      <point x="390" y="478"/>
      <point x="408" y="499"/>
      <point x="412" y="516" type="qcurve"/>
      <point x="424" y="514" type="line"/>
      <point x="417" y="477"/>
      <point x="362" y="447"/>
      <point x="334" y="447" type="qcurve"/>
      <point x="314" y="447"/>
      <point x="284" y="468"/>
    </contour>
  </outline>
</glyph>
<glyph name="Amacron" format="1">
  <advance width="718"/>
  <unicode hex="0100"/>
  <outline>
    <contour>
      <point x="-29" y="14" type="line"/>
      <point x="-31" y="0" type="line"/>
      <point x="143" y="0" type="line"/>
      <point x="145" y="14" type="line"/>
      <point x="58" y="14" type="line"/>
      <point x="215" y="318" type="line"/>
      <point x="515" y="318" type="line"/>
      <point x="597" y="14" type="line"/>
      <point x="515" y="14" type="line"/>
      <point x="513" y="0" type="line"/>
      <point x="687" y="0" type="line"/>
      <point x="689" y="14" type="line"/>
      <point x="612" y="14" type="line"/>
      <point x="416" y="732" type="line"/>
      <point x="43" y="14" type="line"/>
    </contour>
    <contour>
      <point x="400" y="675" type="line"/>
      <point x="401" y="680"/>
      <point x="404" y="684" type="qcurve"/>
      <point x="406" y="688"/>
      <point x="410" y="697"/>
      <point x="412" y="700" type="qcurve"/>
      <point x="413" y="697"/>
      <point x="415" y="688"/>
      <point x="416" y="684" type="qcurve"/>
      <point x="417" y="680"/>
      <point x="418" y="675" type="qcurve"/>
      <point x="511" y="332" type="line"/>
      <point x="222" y="332" type="line"/>
    </contour>
    <contour>
      <point x="304" y="752" type="line"/>
      <point x="306" y="766" type="line"/>
      <point x="536" y="766" type="line"/>
      <point x="534" y="752" type="line"/>
    </contour>
  </outline>
</glyph>
<glyph name="dcroat" format="1">
  <advance width="528"/>
  <unicode hex="0111"/>
  <outline>
    <contour>
      <point x="402" y="14" type="line"/>
      <point x="482" y="14" type="line"/>
      <point x="480" y="0" type="line"/>
      <point x="386" y="0" type="line"/>
      <point x="393" y="54" type="line"/>
      <point x="395" y="70"/>
      <point x="399" y="101"/>
      <point x="401" y="117" type="qcurve"/>
      <point x="387" y="90"/>
      <point x="346" y="45"/>
      <point x="294" y="12"/>
      <point x="235" y="-6"/>
      <point x="204" y="-6" type="qcurve"/>
      <point x="167" y="-6"/>
      <point x="104" y="21"/>
      <point x="59" y="68"/>
      <point x="33" y="131"/>
      <point x="33" y="168" type="qcurve"/>
      <point x="33" y="212"/>
      <point x="69" y="290"/>
      <point x="129" y="349"/>
      <point x="208" y="383"/>
      <point x="252" y="383" type="qcurve"/>
      <point x="314" y="383"/>
      <point x="403" y="314"/>
      <point x="418" y="260" type="qcurve"/>
      <point x="462" y="616" type="line"/>
      <point x="262" y="616" type="line"/>
      <point x="264" y="630" type="line"/>
      <point x="463" y="630" type="line"/>
      <point x="476" y="736" type="line"/>
      <point x="398" y="736" type="line"/>
      <point x="400" y="750" type="line"/>
      <point x="492" y="750" type="line"/>
      <point x="477" y="630" type="line"/>
      <point x="545" y="630" type="line"/>
      <point x="543" y="616" type="line"/>
      <point x="475" y="616" type="line"/>
      <point x="401" y="13" type="line"/>
    </contour>
    <contour>
      <point x="47" y="170" type="qcurve"/>
      <point x="47" y="136"/>
      <point x="71" y="77"/>
      <point x="113" y="33"/>
      <point x="171" y="8"/>
      <point x="206" y="8" type="qcurve"/>
      <point x="246" y="8"/>
      <point x="320" y="39"/>
      <point x="377" y="93"/>
      <point x="410" y="165"/>
      <point x="410" y="206" type="qcurve"/>
      <point x="410" y="240"/>
      <point x="386" y="300"/>
      <point x="343" y="344"/>
      <point x="284" y="369"/>
      <point x="250" y="369" type="qcurve"/>
      <point x="209" y="369"/>
      <point x="136" y="337"/>
      <point x="80" y="283"/>
      <point x="47" y="210"/>
    </contour>
  </outline>
</glyph>
<glyph name="Eogonek" format="1">
  <advance width="622"/>
  <unicode hex="0118"/>
  <outline>
    <contour>
      <point x="581" y="612" type="line"/>
      <point x="590" y="686" type="line"/>
      <point x="203" y="686" type="line"/>
      <point x="163" y="360" type="line"/>
      <point x="525" y="360" type="line"/>
      <point x="523" y="346" type="line"/>
      <point x="161" y="346" type="line"/>
      <point x="121" y="14" type="line"/>
      <point x="521" y="14" type="line"/>
      <point x="531" y="89" type="line"/>
      <point x="545" y="89" type="line"/>
      <point x="535" y="14" type="line"/>
      <point x="536" y="14" type="line"/>
      <point x="534" y="0" type="line"/>
      <point x="29" y="0" type="line"/>
      <point x="31" y="14" type="line"/>
      <point x="106" y="14" type="line"/>
      <point x="189" y="686" type="line"/>
      <point x="113" y="686" type="line"/>
      <point x="115" y="700" type="line"/>
      <point x="592" y="700" type="line"/>
      <point x="592" y="701" type="line"/>
      <point x="606" y="701" type="line"/>
      <point x="606" y="700" type="line"/>
      <point x="604" y="686" type="line"/>
      <point x="595" y="612" type="line"/>
    </contour>
    <contour>
      <point x="534" y="0" type="line"/>
      <point x="520" y="0" type="line"/>
      <point x="519" y="-6" type="line"/>
      <point x="514" y="-32"/>
      <point x="485" y="-53"/>
      <point x="471" y="-61" type="qcurve"/>
      <point x="445" y="-78"/>
      <point x="420" y="-120"/>
      <point x="420" y="-142" type="qcurve"/>
      <point x="420" y="-185"/>
      <point x="464" y="-223"/>
      <point x="493" y="-223" type="qcurve"/>
      <point x="519" y="-223"/>
      <point x="568" y="-194"/>
      <point x="582" y="-165" type="qcurve"/>
      <point x="567" y="-161" type="line"/>
      <point x="559" y="-182"/>
      <point x="520" y="-209"/>
      <point x="495" y="-209" type="qcurve"/>
      <point x="467" y="-209"/>
      <point x="433" y="-173"/>
      <point x="433" y="-145" type="qcurve"/>
      <point x="433" y="-114"/>
      <point x="462" y="-82"/>
      <point x="498" y="-59"/>
      <point x="529" y="-37"/>
      <point x="532" y="-16" type="qcurve"/>
    </contour>
  </outline>
</glyph>
<glyph name="Gdotaccent" format="1">
  <advance width="681"/>
  <unicode hex="0120"/>
  <outline>
    <contour>
      <point x="626" y="582" type="line"/>
      <point x="634" y="650" type="line"/>
      <point x="599" y="671"/>
      <point x="515" y="694"/>
      <point x="470" y="694" type="qcurve"/>
      <point x="394" y="694"/>
      <point x="254" y="633"/>
      <point x="146" y="528"/>
      <point x="82" y="388"/>
      <point x="82" y="309" type="qcurve"/>
      <point x="82" y="246"/>
      <point x="123" y="135"/>
      <point x="200" y="53"/>
      <point x="312" y="6"/>
      <point x="383" y="6" type="qcurve"/>
      <point x="430" y="6"/>
      <point x="518" y="29"/>
      <point x="559" y="51" type="qcurve"/>
      <point x="588" y="286" type="line"/>
      <point x="416" y="286" type="line"/>
      <point x="418" y="300" type="line"/>
      <point x="604" y="300" type="line"/>
      <point x="572" y="42" type="line"/>
      <point x="530" y="19"/>
      <point x="435" y="-8"/>
      <point x="384" y="-8" type="qcurve"/>
      <point x="310" y="-8"/>
      <point x="192" y="41"/>
      <point x="111" y="127"/>
      <point x="68" y="243"/>
      <point x="68" y="309" type="qcurve"/>
      <point x="68" y="391"/>
      <point x="135" y="536"/>
      <point x="246" y="645"/>
      <point x="392" y="708"/>
      <point x="472" y="708" type="qcurve"/>
      <point x="523" y="708"/>
      <point x="611" y="682"/>
      <point x="649" y="658" type="qcurve"/>
      <point x="640" y="582" type="line"/>
    </contour>
    <contour>
      <point x="454" y="755" type="qcurve"/>
      <point x="454" y="764"/>
      <point x="468" y="777"/>
      <point x="477" y="777" type="qcurve"/>
      <point x="485" y="777"/>
      <point x="495" y="767"/>
      <point x="495" y="759" type="qcurve"/>
      <point x="495" y="750"/>
      <point x="481" y="737"/>
      <point x="472" y="737" type="qcurve"/>
      <point x="464" y="737"/>
      <point x="454" y="747"/>
    </contour>
  </outline>
</glyph>
<glyph name="Imacron" format="1">
  <advance width="293"/>
  <unicode hex="012A"/>
  <outline>
    <contour>
      <point x="290" y="700" type="line"/>
      <point x="288" y="686" type="line"/>
      <point x="205" y="686" type="line"/>
      <point x="122" y="14" type="line"/>
      <point x="206" y="14" type="line"/>
      <point x="204" y="0" type="line"/>
      <point x="30" y="0" type="line"/>
      <point x="32" y="14" type="line"/>
      <point x="108" y="14" type="line"/>
      <point x="191" y="686" type="line"/>
      <point x="114" y="686" type="line"/>
      <point x="116" y="700" type="line"/>
    </contour>
    <contour>
      <point x="92" y="752" type="line"/>
      <point x="94" y="766" type="line"/>
      <point x="324" y="766" type="line"/>
      <point x="322" y="752" type="line"/>
    </contour>
  </outline>
</glyph>
<glyph name="Jcircumflex" format="1">
  <advance width="293"/>
  <unicode hex="0134"/>
  <outline>
    <contour>
      <point x="227" y="700" type="line"/>
      <point x="226" y="686" type="line"/>
      <point x="225" y="686" type="line"/>
      <point x="152" y="90" type="line"/>
      <point x="145" y="34"/>
      <point x="105" y="-51"/>
      <point x="48" y="-109"/>
      <point x="-23" y="-141"/>
      <point x="-61" y="-142" type="qcurve"/>
      <point x="-59" y="-128" type="line"/>
      <point x="-22" y="-126"/>
      <point x="44" y="-95"/>
      <point x="97" y="-38"/>
      <point x="133" y="42"/>
      <point x="139" y="93" type="qcurve"/>
      <point x="212" y="686" type="line"/>
      <point x="114" y="686" type="line"/>
      <point x="115" y="700" type="line"/>
    </contour>
    <contour>
      <point x="214" y="853" type="line"/>
      <point x="319" y="732" type="line"/>
      <point x="303" y="732" type="line"/>
      <point x="211" y="826" type="line"/>
      <point x="95" y="732" type="line"/>
      <point x="79" y="732" type="line"/>
    </contour>
  </outline>
</glyph>
<glyph name="lacute" format="1">
  <advance width="206"/>
  <unicode hex="013A"/>
  <outline>
    <contour>
      <point x="82" y="37" type="line"/>
      <point x="79" y="14" type="line"/>
      <point x="160" y="14" type="line"/>
      <point x="158" y="0" type="line"/>
      <point x="-17" y="0" type="line"/>
      <point x="-15" y="14" type="line"/>
      <point x="64" y="14" type="line"/>
      <point x="153" y="736" type="line"/>
      <point x="73" y="736" type="line"/>
      <point x="75" y="750" type="line"/>
      <point x="169" y="750" type="line"/>
      <point x="81" y="37" type="line"/>
    </contour>
    <contour>
      <point x="136" y="770" type="line"/>
      <point x="242" y="903" type="line"/>
      <point x="258" y="903" type="line"/>
      <point x="152" y="770" type="line"/>
    </contour>
  </outline>
</glyph>
<glyph name="uni0157" format="1">
  <advance width="292"/>
  <unicode hex="0157"/>
  <outline>
    <contour>
      <point x="89" y="37" type="line"/>
      <point x="86" y="14" type="line"/>
      <point x="167" y="14" type="line"/>
      <point x="165" y="0" type="line"/>
      <point x="-10" y="0" type="line"/>
      <point x="-8" y="14" type="line"/>
      <point x="71" y="14" type="line"/>
      <point x="114" y="361" type="line"/>
      <point x="34" y="361" type="line"/>
      <point x="36" y="375" type="line"/>
      <point x="126" y="375" type="line"/>
      <point x="115" y="277" type="line"/>
      <point x="142" y="325"/>
      <point x="237" y="380"/>
      <point x="294" y="382" type="qcurve"/>
      <point x="292" y="368" type="line"/>
      <point x="259" y="367"/>
      <point x="197" y="344"/>
      <point x="148" y="305"/>
      <point x="115" y="251"/>
      <point x="111" y="220" type="qcurve"/>
      <point x="88" y="37" type="line"/>
    </contour>
    <contour>
      <point x="111" y="-21" type="line"/>
      <point x="97" y="-47"/>
      <point x="80" y="-78"/>
      <point x="64" y="-106"/>
      <point x="47" y="-137"/>
      <point x="33" y="-163" type="qcurve"/>
      <point x="19" y="-163" type="line"/>
      <point x="88" y="-21" type="line"/>
    </contour>
  </outline>
</glyph>
<glyph name="uring" format="1">
  <advance width="477"/>
  <unicode hex="016F"/>
  <outline>
    <contour>
      <point x="98" y="333" type="line"/>
      <point x="101" y="361" type="line"/>
      <point x="21" y="361" type="line"/>
      <point x="23" y="375" type="line"/>
      <point x="117" y="375" type="line"/>
      <point x="112" y="333" type="line"/>
      <point x="83" y="98" type="line"/>
      <point x="80" y="62"/>
      <point x="123" y="9"/>
      <point x="167" y="7" type="qcurve"/>
      <point x="201" y="7"/>
      <point x="265" y="29"/>
      <point x="316" y="68"/>
      <point x="350" y="123"/>
      <point x="354" y="155" type="qcurve"/>
      <point x="376" y="338" type="line"/>
      <point x="379" y="361" type="line"/>
      <point x="298" y="361" type="line"/>
      <point x="300" y="375" type="line"/>
      <point x="395" y="375" type="line"/>
      <point x="350" y="14" type="line"/>
      <point x="430" y="14" type="line"/>
      <point x="429" y="0" type="line"/>
      <point x="339" y="0" type="line"/>
      <point x="350" y="98" type="line"/>
      <point x="324" y="50"/>
      <point x="228" y="-7"/>
      <point x="172" y="-7" type="qcurve"/>
      <point x="119" y="-7"/>
      <point x="65" y="55"/>
      <point x="70" y="105" type="qcurve"/>
    </contour>
    <contour>
      <point x="185" y="495" type="qcurve"/>
      <point x="185" y="524"/>
      <point x="227" y="565"/>
      <point x="256" y="565" type="qcurve"/>
      <point x="281" y="565"/>
      <point x="312" y="533"/>
      <point x="312" y="509" type="qcurve"/>
      <point x="312" y="480"/>
      <point x="270" y="439"/>
      <point x="241" y="439" type="qcurve"/>
      <point x="216" y="439"/>
      <point x="185" y="471"/>
    </contour>
    <contour>
      <point x="199" y="498" type="qcurve"/>
      <point x="199" y="480"/>
      <point x="224" y="453"/>
      <point x="243" y="453" type="qcurve"/>
      <point x="263" y="453"/>
      <point x="298" y="485"/>
      <point x="298" y="506" type="qcurve"/>
      <point x="298" y="524"/>
      <point x="273" y="551"/>
      <point x="255" y="551" type="qcurve"/>
      <point x="234" y="551"/>
      <point x="199" y="519"/>
    </contour>
  </outline>
</glyph>
<glyph name="Uhungarumlaut" format="1">
  <advance width="697"/>
  <unicode hex="0170"/>
  <outline>
    <contour>
      <point x="275" y="700" type="line"/>
      <point x="273" y="686" type="line"/>
      <point x="190" y="686" type="line"/>
      <point x="134" y="229" type="line"/>
      <point x="127" y="175"/>
      <point x="148" y="92"/>
      <point x="198" y="35"/>
      <point x="272" y="6"/>
      <point x="318" y="6" type="qcurve"/>
      <point x="363" y="6"/>
      <point x="444" y="35"/>
      <point x="507" y="92"/>
      <point x="549" y="175"/>
      <point x="556" y="229" type="qcurve"/>
      <point x="612" y="686" type="line"/>
      <point x="614" y="700" type="line"/>
      <point x="707" y="700" type="line"/>
      <point x="705" y="686" type="line"/>
      <point x="626" y="686" type="line"/>
      <point x="570" y="226" type="line"/>
      <point x="563" y="169"/>
      <point x="517" y="81"/>
      <point x="450" y="22"/>
      <point x="364" y="-8"/>
      <point x="316" y="-8" type="qcurve"/>
      <point x="268" y="-8"/>
      <point x="189" y="22"/>
      <point x="136" y="81"/>
      <point x="113" y="169"/>
      <point x="120" y="226" type="qcurve"/>
      <point x="176" y="686" type="line"/>
      <point x="99" y="686" type="line"/>
      <point x="101" y="700" type="line"/>
    </contour>
    <contour>
      <point x="534" y="750" type="line"/>
      <point x="640" y="883" type="line"/>
      <point x="656" y="883" type="line"/>
      <point x="550" y="750" type="line"/>
    </contour>
    <contour>
      <point x="316" y="750" type="line"/>
      <point x="422" y="883" type="line"/>
      <point x="438" y="883" type="line"/>
      <point x="332" y="750" type="line"/>
    </contour>
  </outline>
</glyph>
<glyph name="zdotaccent" format="1">
  <advance width="367"/>
  <unicode hex="017C"/>
  <outline>
    <contour>
      <point x="306" y="87" type="line"/>
      <point x="297" y="14" type="line"/>
      <point x="295" y="0" type="line"/>
      <point x="-4" y="0" type="line"/>
      <point x="300" y="361" type="line"/>
      <point x="103" y="361" type="line"/>
      <point x="72" y="361"/>
      <point x="47" y="377"/>
      <point x="49" y="406" type="qcurve"/>
      <point x="49" y="410" type="line"/>
      <point x="62" y="410" type="line"/>
      <point x="61" y="398" type="line"/>
      <point x="60" y="389"/>
      <point x="74" y="375"/>
      <point x="91" y="375" type="qcurve"/>
      <point x="326" y="375" type="line"/>
      <point x="22" y="14" type="line"/>
      <point x="284" y="14" type="line"/>
      <point x="293" y="87" type="line"/>
    </contour>
    <contour>
      <point x="187" y="498" type="qcurve"/>
      <point x="187" y="507"/>
      <point x="201" y="520"/>
      <point x="210" y="520" type="qcurve"/>
      <point x="218" y="520"/>
      <point x="228" y="510"/>
      <point x="228" y="502" type="qcurve"/>
      <point x="228" y="493"/>
      <point x="214" y="480"/>
      <point x="205" y="480" type="qcurve"/>
      <point x="197" y="480"/>
      <point x="187" y="490"/>
    </contour>
  </outline>
</glyph>
<glyph name="Zcaron" format="1">
  <advance width="644"/>
  <unicode hex="017D"/>
  <outline>
    <contour>
      <point x="143" y="700" type="qcurve"/>
      <point x="618" y="700" type="line"/>
      <point x="16" y="14" type="line"/>
      <point x="552" y="14" type="line"/>
      <point x="569" y="148" type="line"/>
      <point x="583" y="148" type="line"/>
      <point x="566" y="14" type="line"/>
      <point x="567" y="14" type="line"/>
      <point x="565" y="0" type="line"/>
      <point x="-11" y="0" type="line"/>
      <point x="139" y="180"/>
      <point x="439" y="517"/>
      <point x="588" y="686" type="qcurve"/>
      <point x="155" y="686" type="line"/>
      <point x="124" y="686"/>
      <point x="99" y="702"/>
      <point x="101" y="731" type="qcurve"/>
      <point x="101" y="735" type="line"/>
      <point x="117" y="735" type="line"/>
      <point x="116" y="723" type="line"/>
      <point x="115" y="714"/>
      <point x="126" y="700"/>
    </contour>
    <contour>
      <point x="265" y="850" type="line"/>
      <point x="281" y="850" type="line"/>
      <point x="373" y="756" type="line"/>
      <point x="489" y="850" type="line"/>
      <point x="505" y="850" type="line"/>
      <point x="370" y="729" type="line"/>
    </contour>
  </outline>
</glyph>
<glyph name="caron" format="1">
  <advance width="450"/>
  <unicode hex="02C7"/>
  <outline>
    <contour>
      <point x="186" y="600" type="line"/>
      <point x="202" y="600" type="line"/>
      <point x="294" y="506" type="line"/>
      <point x="410" y="600" type="line"/>
      <point x="426" y="600" type="line"/>
      <point x="291" y="479" type="line"/>
    </contour>
  </outline>
</glyph>
<glyph name="hungarumlaut" format="1">
  <advance width="436"/>
  <unicode hex="02DD"/>
  <outline>
    <contour>
      <point x="159" y="479" type="line"/>
      <point x="265" y="612" type="line"/>
      <point x="281" y="612" type="line"/>
      <point x="175" y="479" type="line"/>
    </contour>
    <contour>
      <point x="377" y="479" type="line"/>
      <point x="483" y="612" type="line"/>
      <point x="499" y="612" type="line"/>
      <point x="393" y="479" type="line"/>
    </contour>
  </outline>
</glyph>
<glyph name="endash" format="1">
  <advance width="435"/>
  <unicode hex="2013"/>
  <outline>
    <contour>
      <point x="56" y="179" type="line"/>
      <point x="58" y="193" type="line"/>
      <point x="359" y="193" type="line"/>
      <point x="357" y="179" type="line"/>
    </contour>
  </outline>
</glyph>
<glyph name="emdash" format="1">
  <advance width="636"/>
  <unicode hex="2014"/>
  <outline>
    <contour>
      <point x="56" y="179" type="line"/>
      <point x="58" y="193" type="line"/>
      <point x="560" y="193" type="line"/>
      <point x="558" y="179" type="line"/>
    </contour>
  </outline>
</glyph>
<glyph name="quoteright" format="1">
  <advance width="188"/>
  <unicode hex="2019"/>
  <outline>
    <contour>
      <point x="110" y="572" type="qcurve"/>
      <point x="109" y="577"/>
      <point x="108" y="585"/>
      <point x="106" y="590" type="qcurve"/>
      <point x="130" y="610"/>
      <point x="156" y="669"/>
      <point x="153" y="704" type="qcurve"/>
      <point x="173" y="711" type="line"/>
      <point x="177" y="671"/>
      <point x="143" y="598"/>
    </contour>
  </outline>
</glyph>
<glyph name="ellipsis" format="1">
  <advance width="513"/>
  <unicode hex="2026"/>
  <outline>
    <contour>
      <point x="45" y="18" type="qcurve"/>
      <point x="45" y="27"/>
      <point x="59" y="40"/>
      <point x="68" y="40" type="qcurve"/>
      <point x="76" y="40"/>
      <point x="86" y="30"/>
      <point x="86" y="22" type="qcurve"/>
      <point x="86" y="13"/>
      <point x="72" y="0"/>
      <point x="63" y="0" type="qcurve"/>
      <point x="55" y="0"/>
      <point x="45" y="10"/>
    </contour>
    <contour>
      <point x="208" y="18" type="qcurve"/>
      <point x="208" y="27"/>
      <point x="222" y="40"/>
      <point x="231" y="40" type="qcurve"/>
      <point x="239" y="40"/>
      <point x="249" y="30"/>
      <point x="249" y="22" type="qcurve"/>
      <point x="249" y="13"/>
      <point x="235" y="0"/>
      <point x="226" y="0" type="qcurve"/>
      <point x="218" y="0"/>
      <point x="208" y="10"/>
    </contour>
    <contour>
      <point x="371" y="18" type="qcurve"/>
      <point x="371" y="27"/>
      <point x="385" y="40"/>
      <point x="394" y="40" type="qcurve"/>
      <point x="402" y="40"/>
      <point x="412" y="30"/>
      <point x="412" y="22" type="qcurve"/>
      <point x="412" y="13"/>
      <point x="398" y="0"/>
      <point x="389" y="0" type="qcurve"/>
      <point x="381" y="0"/>
      <point x="371" y="10"/>
    </contour>
  </outline>
</glyph>
<glyph name="trademark" format="1">
  <advance width="580"/>
  <unicode hex="2122"/>
  <outline>
    <contour>
      <point x="253" y="757" type="line"/>
      <point x="252" y="751" type="line"/>
      <point x="178" y="751" type="line"/>
      <point x="147" y="498" type="line"/>
      <point x="143" y="498" type="line"/>
      <point x="174" y="751" type="line"/>
      <point x="100" y="751" type="line"/>
      <point x="101" y="757" type="line"/>
    </contour>
    <contour>
      <point x="304" y="768" type="line"/>
      <point x="332" y="716"/>
      <point x="377" y="637"/>
      <point x="403" y="593" type="qcurve"/>
      <point x="413" y="605"/>
      <point x="443" y="644"/>
      <point x="481" y="690"/>
      <point x="523" y="742"/>
      <point x="544" y="768" type="qcurve"/>
      <point x="511" y="498" type="line"/>
      <point x="506" y="498" type="line"/>
      <point x="535" y="736" type="line"/>
      <point x="536" y="741"/>
      <point x="537" y="748"/>
      <point x="537" y="752" type="qcurve"/>
      <point x="501" y="707"/>
      <point x="433" y="621"/>
      <point x="401" y="582" type="qcurve"/>
      <point x="391" y="598"/>
      <point x="363" y="648"/>
      <point x="336" y="698"/>
      <point x="313" y="741"/>
      <point x="308" y="752" type="qcurve"/>
      <point x="308" y="748"/>
      <point x="307" y="741"/>
      <point x="306" y="736" type="qcurve"/>
      <point x="277" y="498" type="line"/>
      <point x="271" y="498" type="line"/>
    </contour>
  </outline>
</glyph>
<glyph name="Delta" format="1">
  <advance width="422"/>
  <unicode hex="2206"/>
  <outline>
    <contour>
      <point x="270" y="730" type="line"/>
      <point x="367" y="286" type="line"/>
      <point x="63" y="286" type="line"/>
    </contour>
    <contour>
      <point x="85" y="300" type="line"/>
      <point x="348" y="300" type="line"/>
      <point x="264" y="683" type="line"/>
    </contour>
  </outline>
</glyph>
<glyph name="integral" format="1">
  <advance width="287"/>
  <unicode hex="222B"/>
  <outline>
    <contour>
      <point x="180" y="628" type="line"/>
      <point x="186" y="673"/>
      <point x="206" y="722"/>
      <point x="233" y="743"/>
      <point x="265" y="746"/>
      <point x="281" y="746" type="qcurve"/>
      <point x="318" y="746" type="line"/>
      <point x="316" y="732" type="line"/>
      <point x="259" y="732" type="line"/>
      <point x="228" y="732"/>
      <point x="201" y="680"/>
      <point x="193" y="620" type="qcurve"/>
      <point x="118" y="6" type="line"/>
      <point x="111" y="-53"/>
      <point x="91" y="-116"/>
      <point x="65" y="-144"/>
      <point x="33" y="-148"/>
      <point x="13" y="-148" type="qcurve"/>
      <point x="-24" y="-148" type="line"/>
      <point x="-22" y="-134" type="line"/>
      <point x="35" y="-134" type="line"/>
      <point x="66" y="-134"/>
      <point x="92" y="-82"/>
      <point x="100" y="-22" type="qcurve"/>
    </contour>
  </outline>
</glyph>
